<mxfile host="app.diagrams.net" agent="Mozilla/5.0 (Windows NT 10.0; Win64; x64) AppleWebKit/537.36 (KHTML, like Gecko) Chrome/130.0.0.0 Safari/537.36" version="24.8.4">
  <diagram name="Page-1" id="OJHpDH6F5lSvorjCrwS0">
    <mxGraphModel dx="1410" dy="1512" grid="1" gridSize="10" guides="1" tooltips="1" connect="1" arrows="1" fold="1" page="1" pageScale="1" pageWidth="827" pageHeight="1169" background="none" math="0" shadow="0">
      <root>
        <mxCell id="0" />
        <mxCell id="1" parent="0" />
        <mxCell id="9179TzxeBBv2wxfT4U8i-2" value="User" style="rounded=0;arcSize=10;whiteSpace=wrap;html=1;align=center;labelBackgroundColor=none;" parent="1" vertex="1">
          <mxGeometry x="-120" y="-844" width="100" height="40" as="geometry" />
        </mxCell>
        <mxCell id="9179TzxeBBv2wxfT4U8i-3" value="User ID" style="ellipse;whiteSpace=wrap;html=1;align=center;fontStyle=4;labelBackgroundColor=none;rounded=0;" parent="1" vertex="1">
          <mxGeometry x="-330" y="-746.25" width="100" height="40" as="geometry" />
        </mxCell>
        <mxCell id="9179TzxeBBv2wxfT4U8i-4" value="Date of Birth" style="ellipse;whiteSpace=wrap;html=1;align=center;labelBackgroundColor=none;rounded=0;" parent="1" vertex="1">
          <mxGeometry x="-340" y="-804" width="100" height="40" as="geometry" />
        </mxCell>
        <mxCell id="9179TzxeBBv2wxfT4U8i-6" value="Gender" style="ellipse;whiteSpace=wrap;html=1;align=center;labelBackgroundColor=none;rounded=0;" parent="1" vertex="1">
          <mxGeometry x="-350" y="-860" width="100" height="40" as="geometry" />
        </mxCell>
        <mxCell id="9179TzxeBBv2wxfT4U8i-8" value="Address" style="ellipse;whiteSpace=wrap;html=1;align=center;labelBackgroundColor=none;rounded=0;" parent="1" vertex="1">
          <mxGeometry x="-246" y="-965" width="126" height="40" as="geometry" />
        </mxCell>
        <mxCell id="9179TzxeBBv2wxfT4U8i-9" value="Name" style="ellipse;whiteSpace=wrap;html=1;align=center;labelBackgroundColor=none;rounded=0;" parent="1" vertex="1">
          <mxGeometry x="-310" y="-920" width="100" height="40" as="geometry" />
        </mxCell>
        <mxCell id="9179TzxeBBv2wxfT4U8i-10" value="Last Name" style="ellipse;whiteSpace=wrap;html=1;align=center;labelBackgroundColor=none;rounded=0;" parent="1" vertex="1">
          <mxGeometry x="-430" y="-990" width="100" height="40" as="geometry" />
        </mxCell>
        <mxCell id="9179TzxeBBv2wxfT4U8i-11" value="First Name" style="ellipse;whiteSpace=wrap;html=1;align=center;labelBackgroundColor=none;rounded=0;" parent="1" vertex="1">
          <mxGeometry x="-440" y="-920" width="100" height="40" as="geometry" />
        </mxCell>
        <mxCell id="9179TzxeBBv2wxfT4U8i-12" value="Middle Name" style="ellipse;whiteSpace=wrap;html=1;align=center;labelBackgroundColor=none;rounded=0;" parent="1" vertex="1">
          <mxGeometry x="-360" y="-1030" width="100" height="40" as="geometry" />
        </mxCell>
        <mxCell id="9179TzxeBBv2wxfT4U8i-37" value="" style="endArrow=none;html=1;rounded=0;labelBackgroundColor=none;fontColor=default;exitX=0.96;exitY=0.708;exitDx=0;exitDy=0;exitPerimeter=0;entryX=0;entryY=0.5;entryDx=0;entryDy=0;" parent="1" source="9179TzxeBBv2wxfT4U8i-3" target="9179TzxeBBv2wxfT4U8i-2" edge="1">
          <mxGeometry relative="1" as="geometry">
            <mxPoint x="-194" y="-900" as="sourcePoint" />
            <mxPoint x="-70" y="-870" as="targetPoint" />
          </mxGeometry>
        </mxCell>
        <mxCell id="9179TzxeBBv2wxfT4U8i-38" value="" style="endArrow=none;html=1;rounded=0;entryX=0;entryY=0.5;entryDx=0;entryDy=0;exitX=0.973;exitY=0.684;exitDx=0;exitDy=0;labelBackgroundColor=none;fontColor=default;exitPerimeter=0;" parent="1" source="9179TzxeBBv2wxfT4U8i-4" target="9179TzxeBBv2wxfT4U8i-2" edge="1">
          <mxGeometry relative="1" as="geometry">
            <mxPoint x="-330" y="-750" as="sourcePoint" />
            <mxPoint x="-170" y="-750" as="targetPoint" />
          </mxGeometry>
        </mxCell>
        <mxCell id="9179TzxeBBv2wxfT4U8i-41" value="" style="endArrow=none;html=1;rounded=0;entryX=0.5;entryY=1;entryDx=0;entryDy=0;exitX=0.5;exitY=0;exitDx=0;exitDy=0;labelBackgroundColor=none;fontColor=default;" parent="1" source="9179TzxeBBv2wxfT4U8i-9" target="9179TzxeBBv2wxfT4U8i-10" edge="1">
          <mxGeometry relative="1" as="geometry">
            <mxPoint x="1.699999999999818" y="-1048.2400000000002" as="sourcePoint" />
            <mxPoint x="10" y="-1090" as="targetPoint" />
          </mxGeometry>
        </mxCell>
        <mxCell id="9179TzxeBBv2wxfT4U8i-42" value="" style="endArrow=none;html=1;rounded=0;exitX=0.5;exitY=0;exitDx=0;exitDy=0;labelBackgroundColor=none;fontColor=default;entryX=0.5;entryY=1;entryDx=0;entryDy=0;" parent="1" source="9179TzxeBBv2wxfT4U8i-9" target="9179TzxeBBv2wxfT4U8i-12" edge="1">
          <mxGeometry relative="1" as="geometry">
            <mxPoint x="36.59999999999991" y="-1047.88" as="sourcePoint" />
            <mxPoint x="90" y="-1080" as="targetPoint" />
          </mxGeometry>
        </mxCell>
        <mxCell id="9179TzxeBBv2wxfT4U8i-47" value="" style="endArrow=none;html=1;rounded=0;exitX=0;exitY=0.5;exitDx=0;exitDy=0;labelBackgroundColor=none;fontColor=default;entryX=1;entryY=0.5;entryDx=0;entryDy=0;" parent="1" source="9179TzxeBBv2wxfT4U8i-2" target="9179TzxeBBv2wxfT4U8i-6" edge="1">
          <mxGeometry relative="1" as="geometry">
            <mxPoint x="-380" y="-700" as="sourcePoint" />
            <mxPoint x="-70" y="-930" as="targetPoint" />
          </mxGeometry>
        </mxCell>
        <mxCell id="9179TzxeBBv2wxfT4U8i-48" value="" style="endArrow=none;html=1;rounded=0;entryX=0.5;entryY=1;entryDx=0;entryDy=0;exitX=0;exitY=0.5;exitDx=0;exitDy=0;labelBackgroundColor=none;fontColor=default;" parent="1" source="9179TzxeBBv2wxfT4U8i-2" target="9179TzxeBBv2wxfT4U8i-9" edge="1">
          <mxGeometry relative="1" as="geometry">
            <mxPoint x="-360" y="-460" as="sourcePoint" />
            <mxPoint x="-200" y="-460" as="targetPoint" />
          </mxGeometry>
        </mxCell>
        <mxCell id="9179TzxeBBv2wxfT4U8i-49" value="" style="endArrow=none;html=1;rounded=0;entryX=1;entryY=0;entryDx=0;entryDy=0;exitX=0.5;exitY=0;exitDx=0;exitDy=0;labelBackgroundColor=none;fontColor=default;" parent="1" source="9179TzxeBBv2wxfT4U8i-9" target="9179TzxeBBv2wxfT4U8i-11" edge="1">
          <mxGeometry relative="1" as="geometry">
            <mxPoint x="-120" y="-590" as="sourcePoint" />
            <mxPoint x="40" y="-590" as="targetPoint" />
          </mxGeometry>
        </mxCell>
        <mxCell id="9179TzxeBBv2wxfT4U8i-50" value="" style="endArrow=none;html=1;rounded=0;entryX=0.5;entryY=1;entryDx=0;entryDy=0;exitX=0;exitY=0.5;exitDx=0;exitDy=0;labelBackgroundColor=none;fontColor=default;" parent="1" source="9179TzxeBBv2wxfT4U8i-2" target="9179TzxeBBv2wxfT4U8i-8" edge="1">
          <mxGeometry relative="1" as="geometry">
            <mxPoint x="-70" y="-640" as="sourcePoint" />
            <mxPoint x="90" y="-640" as="targetPoint" />
          </mxGeometry>
        </mxCell>
        <mxCell id="9179TzxeBBv2wxfT4U8i-51" value="ISA" style="triangle;whiteSpace=wrap;html=1;direction=north;fillStyle=auto;labelBackgroundColor=none;" parent="1" vertex="1">
          <mxGeometry x="-95" y="-661" width="50" height="41" as="geometry" />
        </mxCell>
        <mxCell id="9179TzxeBBv2wxfT4U8i-52" value="Employee" style="rounded=0;whiteSpace=wrap;html=1;fillStyle=auto;labelBackgroundColor=none;" parent="1" vertex="1">
          <mxGeometry x="-120" y="-300" width="100" height="42.5" as="geometry" />
        </mxCell>
        <mxCell id="njY1YbPTtfIoSLw62Omg-64" value="Phone Number" style="ellipse;shape=doubleEllipse;margin=3;whiteSpace=wrap;html=1;align=center;labelBackgroundColor=none;" parent="1" vertex="1">
          <mxGeometry x="-310" y="-690" width="100" height="40" as="geometry" />
        </mxCell>
        <mxCell id="njY1YbPTtfIoSLw62Omg-66" value="" style="endArrow=none;html=1;rounded=0;labelBackgroundColor=none;fontColor=default;exitX=1;exitY=0.5;exitDx=0;exitDy=0;entryX=0;entryY=0.5;entryDx=0;entryDy=0;" parent="1" source="njY1YbPTtfIoSLw62Omg-64" target="9179TzxeBBv2wxfT4U8i-2" edge="1">
          <mxGeometry relative="1" as="geometry">
            <mxPoint x="-188" y="-882" as="sourcePoint" />
            <mxPoint x="-120" y="-850" as="targetPoint" />
          </mxGeometry>
        </mxCell>
        <mxCell id="OQcG7aROBmUX-weqK0BG-1" value="&lt;u&gt;Employee ID&lt;/u&gt;" style="ellipse;whiteSpace=wrap;html=1;align=center;labelBackgroundColor=none;rounded=0;" parent="1" vertex="1">
          <mxGeometry x="-340" y="-291.25" width="100" height="40" as="geometry" />
        </mxCell>
        <mxCell id="OQcG7aROBmUX-weqK0BG-2" value="Employee Type" style="ellipse;whiteSpace=wrap;html=1;align=center;labelBackgroundColor=none;rounded=0;" parent="1" vertex="1">
          <mxGeometry x="-340" y="-354" width="100" height="40" as="geometry" />
        </mxCell>
        <mxCell id="OQcG7aROBmUX-weqK0BG-3" value="Start Date" style="ellipse;whiteSpace=wrap;html=1;align=center;labelBackgroundColor=none;rounded=0;" parent="1" vertex="1">
          <mxGeometry x="-350" y="-210" width="100" height="40" as="geometry" />
        </mxCell>
        <mxCell id="OQcG7aROBmUX-weqK0BG-4" value="" style="endArrow=none;html=1;rounded=0;entryX=0.5;entryY=1;entryDx=0;entryDy=0;exitX=0;exitY=0.5;exitDx=0;exitDy=0;labelBackgroundColor=none;fontColor=default;" parent="1" source="9179TzxeBBv2wxfT4U8i-52" target="OQcG7aROBmUX-weqK0BG-1" edge="1">
          <mxGeometry relative="1" as="geometry">
            <mxPoint x="-10" y="-590" as="sourcePoint" />
            <mxPoint x="54" y="-631" as="targetPoint" />
          </mxGeometry>
        </mxCell>
        <mxCell id="OQcG7aROBmUX-weqK0BG-5" value="" style="endArrow=none;html=1;rounded=0;entryX=0.5;entryY=1;entryDx=0;entryDy=0;exitX=0;exitY=0.5;exitDx=0;exitDy=0;labelBackgroundColor=none;fontColor=default;" parent="1" source="9179TzxeBBv2wxfT4U8i-52" target="OQcG7aROBmUX-weqK0BG-2" edge="1">
          <mxGeometry relative="1" as="geometry">
            <mxPoint y="-580" as="sourcePoint" />
            <mxPoint x="64" y="-621" as="targetPoint" />
          </mxGeometry>
        </mxCell>
        <mxCell id="OQcG7aROBmUX-weqK0BG-6" value="" style="endArrow=none;html=1;rounded=0;exitX=0;exitY=0.5;exitDx=0;exitDy=0;labelBackgroundColor=none;fontColor=default;entryX=1;entryY=0.5;entryDx=0;entryDy=0;" parent="1" source="9179TzxeBBv2wxfT4U8i-52" target="OQcG7aROBmUX-weqK0BG-3" edge="1">
          <mxGeometry relative="1" as="geometry">
            <mxPoint x="10" y="-570" as="sourcePoint" />
            <mxPoint x="480" y="-650" as="targetPoint" />
          </mxGeometry>
        </mxCell>
        <mxCell id="OQcG7aROBmUX-weqK0BG-8" value="" style="endArrow=none;html=1;rounded=0;exitX=0.5;exitY=1;exitDx=0;exitDy=0;labelBackgroundColor=none;fontColor=default;" parent="1" source="9179TzxeBBv2wxfT4U8i-52" edge="1">
          <mxGeometry relative="1" as="geometry">
            <mxPoint x="-10" y="-570" as="sourcePoint" />
            <mxPoint x="-70" y="-160" as="targetPoint" />
          </mxGeometry>
        </mxCell>
        <mxCell id="OQcG7aROBmUX-weqK0BG-49" value="OnlineCustomer" style="rounded=0;whiteSpace=wrap;html=1;fillStyle=auto;labelBackgroundColor=none;" parent="1" vertex="1">
          <mxGeometry x="126" y="-692.75" width="100" height="42.5" as="geometry" />
        </mxCell>
        <mxCell id="OQcG7aROBmUX-weqK0BG-52" value="Walk-in-Customer" style="rounded=0;whiteSpace=wrap;html=1;fillStyle=auto;labelBackgroundColor=none;" parent="1" vertex="1">
          <mxGeometry x="126" y="-540" width="100" height="42.5" as="geometry" />
        </mxCell>
        <mxCell id="OQcG7aROBmUX-weqK0BG-58" value="" style="endArrow=none;html=1;rounded=0;exitX=0.5;exitY=1;exitDx=0;exitDy=0;labelBackgroundColor=none;fontColor=default;entryX=0.5;entryY=0;entryDx=0;entryDy=0;" parent="1" target="OQcG7aROBmUX-weqK0BG-49" edge="1">
          <mxGeometry relative="1" as="geometry">
            <mxPoint x="104" y="-764" as="sourcePoint" />
            <mxPoint x="306" y="-624" as="targetPoint" />
          </mxGeometry>
        </mxCell>
        <mxCell id="OQcG7aROBmUX-weqK0BG-73" value="Membership Card" style="rounded=0;whiteSpace=wrap;html=1;fillStyle=auto;labelBackgroundColor=none;" parent="1" vertex="1">
          <mxGeometry x="690" y="-540" width="100" height="42.5" as="geometry" />
        </mxCell>
        <mxCell id="OQcG7aROBmUX-weqK0BG-74" value="&lt;u&gt;Member ID&lt;/u&gt;" style="ellipse;whiteSpace=wrap;html=1;align=center;labelBackgroundColor=none;rounded=0;" parent="1" vertex="1">
          <mxGeometry x="812" y="-620" width="100" height="40" as="geometry" />
        </mxCell>
        <mxCell id="OQcG7aROBmUX-weqK0BG-76" value="Possesses" style="shape=rhombus;perimeter=rhombusPerimeter;whiteSpace=wrap;html=1;align=center;fillStyle=auto;labelBackgroundColor=none;" parent="1" vertex="1">
          <mxGeometry x="415.5" y="-548.75" width="80" height="60" as="geometry" />
        </mxCell>
        <mxCell id="OQcG7aROBmUX-weqK0BG-79" value="" style="endArrow=none;html=1;rounded=0;labelBackgroundColor=none;fontColor=default;exitX=1;exitY=0.5;exitDx=0;exitDy=0;entryX=0;entryY=0.5;entryDx=0;entryDy=0;" parent="1" source="OQcG7aROBmUX-weqK0BG-52" target="OQcG7aROBmUX-weqK0BG-76" edge="1">
          <mxGeometry relative="1" as="geometry">
            <mxPoint x="231" y="-518.75" as="sourcePoint" />
            <mxPoint x="340" y="-518.75" as="targetPoint" />
          </mxGeometry>
        </mxCell>
        <mxCell id="OQcG7aROBmUX-weqK0BG-80" value="" style="endArrow=none;html=1;rounded=0;labelBackgroundColor=none;fontColor=default;entryX=0;entryY=0.5;entryDx=0;entryDy=0;exitX=1;exitY=0.5;exitDx=0;exitDy=0;" parent="1" source="OQcG7aROBmUX-weqK0BG-76" target="OQcG7aROBmUX-weqK0BG-73" edge="1">
          <mxGeometry relative="1" as="geometry">
            <mxPoint x="590" y="-520" as="sourcePoint" />
            <mxPoint x="520" y="-605" as="targetPoint" />
          </mxGeometry>
        </mxCell>
        <mxCell id="OQcG7aROBmUX-weqK0BG-81" value="Shift Duty" style="rounded=0;whiteSpace=wrap;html=1;fillStyle=auto;labelBackgroundColor=none;" parent="1" vertex="1">
          <mxGeometry x="174" y="-300" width="100" height="42.5" as="geometry" />
        </mxCell>
        <mxCell id="OQcG7aROBmUX-weqK0BG-82" value="Works" style="shape=rhombus;perimeter=rhombusPerimeter;whiteSpace=wrap;html=1;align=center;fillStyle=auto;labelBackgroundColor=none;" parent="1" vertex="1">
          <mxGeometry x="20" y="-308.75" width="95" height="60" as="geometry" />
        </mxCell>
        <mxCell id="OQcG7aROBmUX-weqK0BG-83" value="" style="endArrow=none;html=1;rounded=0;entryX=0;entryY=0.5;entryDx=0;entryDy=0;exitX=1;exitY=0.5;exitDx=0;exitDy=0;labelBackgroundColor=none;fontColor=default;shape=link;" parent="1" source="9179TzxeBBv2wxfT4U8i-52" target="OQcG7aROBmUX-weqK0BG-82" edge="1">
          <mxGeometry relative="1" as="geometry">
            <mxPoint y="-300" as="sourcePoint" />
            <mxPoint y="-198" as="targetPoint" />
          </mxGeometry>
        </mxCell>
        <mxCell id="OQcG7aROBmUX-weqK0BG-84" value="" style="endArrow=none;html=1;rounded=0;exitX=1;exitY=0.5;exitDx=0;exitDy=0;labelBackgroundColor=none;fontColor=default;entryX=0;entryY=0.5;entryDx=0;entryDy=0;shape=link;" parent="1" source="OQcG7aROBmUX-weqK0BG-82" target="OQcG7aROBmUX-weqK0BG-81" edge="1">
          <mxGeometry relative="1" as="geometry">
            <mxPoint x="160" y="-220" as="sourcePoint" />
            <mxPoint x="170" y="-280" as="targetPoint" />
          </mxGeometry>
        </mxCell>
        <mxCell id="OQcG7aROBmUX-weqK0BG-85" value="&lt;u&gt;Record id&lt;/u&gt;" style="ellipse;whiteSpace=wrap;html=1;align=center;labelBackgroundColor=none;rounded=0;" parent="1" vertex="1">
          <mxGeometry x="126" y="-370" width="82" height="40" as="geometry" />
        </mxCell>
        <mxCell id="OQcG7aROBmUX-weqK0BG-86" value="Working hour" style="ellipse;whiteSpace=wrap;html=1;align=center;labelBackgroundColor=none;rounded=0;" parent="1" vertex="1">
          <mxGeometry x="226" y="-230" width="70" height="40" as="geometry" />
        </mxCell>
        <mxCell id="OQcG7aROBmUX-weqK0BG-87" value="Date" style="ellipse;whiteSpace=wrap;html=1;align=center;labelBackgroundColor=none;rounded=0;" parent="1" vertex="1">
          <mxGeometry x="226" y="-370" width="80" height="40" as="geometry" />
        </mxCell>
        <mxCell id="OQcG7aROBmUX-weqK0BG-88" value="" style="endArrow=none;html=1;rounded=0;labelBackgroundColor=none;fontColor=default;exitX=0.5;exitY=1;exitDx=0;exitDy=0;entryX=0.5;entryY=0;entryDx=0;entryDy=0;" parent="1" source="OQcG7aROBmUX-weqK0BG-81" target="OQcG7aROBmUX-weqK0BG-86" edge="1">
          <mxGeometry relative="1" as="geometry">
            <mxPoint x="225" y="-300" as="sourcePoint" />
            <mxPoint x="225" y="-340" as="targetPoint" />
          </mxGeometry>
        </mxCell>
        <mxCell id="OQcG7aROBmUX-weqK0BG-89" value="" style="endArrow=none;html=1;rounded=0;exitX=0.5;exitY=0;exitDx=0;exitDy=0;labelBackgroundColor=none;fontColor=default;entryX=0.5;entryY=1;entryDx=0;entryDy=0;" parent="1" source="OQcG7aROBmUX-weqK0BG-81" target="OQcG7aROBmUX-weqK0BG-87" edge="1">
          <mxGeometry relative="1" as="geometry">
            <mxPoint x="390" y="-250" as="sourcePoint" />
            <mxPoint x="449" y="-250" as="targetPoint" />
          </mxGeometry>
        </mxCell>
        <mxCell id="OQcG7aROBmUX-weqK0BG-90" value="" style="endArrow=none;html=1;rounded=0;labelBackgroundColor=none;fontColor=default;entryX=0.5;entryY=1;entryDx=0;entryDy=0;exitX=0.5;exitY=0;exitDx=0;exitDy=0;" parent="1" source="OQcG7aROBmUX-weqK0BG-81" target="OQcG7aROBmUX-weqK0BG-85" edge="1">
          <mxGeometry relative="1" as="geometry">
            <mxPoint x="230" y="-290" as="sourcePoint" />
            <mxPoint x="419" y="-270" as="targetPoint" />
          </mxGeometry>
        </mxCell>
        <mxCell id="OQcG7aROBmUX-weqK0BG-91" value="Offered by" style="shape=rhombus;perimeter=rhombusPerimeter;whiteSpace=wrap;html=1;align=center;fillStyle=auto;labelBackgroundColor=none;" parent="1" vertex="1">
          <mxGeometry x="350" y="-308.75" width="95" height="60" as="geometry" />
        </mxCell>
        <mxCell id="OQcG7aROBmUX-weqK0BG-92" value="" style="endArrow=none;html=1;rounded=0;exitX=1;exitY=0.5;exitDx=0;exitDy=0;labelBackgroundColor=none;fontColor=default;entryX=0;entryY=0.5;entryDx=0;entryDy=0;shape=link;" parent="1" source="OQcG7aROBmUX-weqK0BG-81" target="OQcG7aROBmUX-weqK0BG-91" edge="1">
          <mxGeometry relative="1" as="geometry">
            <mxPoint x="330" y="-320" as="sourcePoint" />
            <mxPoint x="389" y="-320" as="targetPoint" />
          </mxGeometry>
        </mxCell>
        <mxCell id="OQcG7aROBmUX-weqK0BG-93" value="Store" style="rounded=0;whiteSpace=wrap;html=1;fillStyle=auto;labelBackgroundColor=none;" parent="1" vertex="1">
          <mxGeometry x="520" y="-300" width="100" height="42.5" as="geometry" />
        </mxCell>
        <mxCell id="OQcG7aROBmUX-weqK0BG-94" value="" style="endArrow=none;html=1;rounded=0;exitX=1;exitY=0.5;exitDx=0;exitDy=0;labelBackgroundColor=none;fontColor=default;entryX=0;entryY=0.5;entryDx=0;entryDy=0;" parent="1" source="OQcG7aROBmUX-weqK0BG-91" target="OQcG7aROBmUX-weqK0BG-93" edge="1">
          <mxGeometry relative="1" as="geometry">
            <mxPoint x="470" y="-240" as="sourcePoint" />
            <mxPoint x="546" y="-240" as="targetPoint" />
          </mxGeometry>
        </mxCell>
        <mxCell id="OQcG7aROBmUX-weqK0BG-95" value="&lt;u&gt;Store Id&lt;/u&gt;" style="ellipse;whiteSpace=wrap;html=1;align=center;labelBackgroundColor=none;rounded=0;" parent="1" vertex="1">
          <mxGeometry x="443" y="-380" width="82" height="40" as="geometry" />
        </mxCell>
        <mxCell id="OQcG7aROBmUX-weqK0BG-96" value="Store Name" style="ellipse;whiteSpace=wrap;html=1;align=center;labelBackgroundColor=none;rounded=0;" parent="1" vertex="1">
          <mxGeometry x="455" y="-220" width="82" height="40" as="geometry" />
        </mxCell>
        <mxCell id="OQcG7aROBmUX-weqK0BG-97" value="Address" style="ellipse;whiteSpace=wrap;html=1;align=center;labelBackgroundColor=none;rounded=0;" parent="1" vertex="1">
          <mxGeometry x="648" y="-370" width="82" height="40" as="geometry" />
        </mxCell>
        <mxCell id="OQcG7aROBmUX-weqK0BG-98" value="Contact info" style="ellipse;whiteSpace=wrap;html=1;align=center;labelBackgroundColor=none;rounded=0;" parent="1" vertex="1">
          <mxGeometry x="548" y="-380" width="82" height="40" as="geometry" />
        </mxCell>
        <mxCell id="OQcG7aROBmUX-weqK0BG-99" value="" style="endArrow=none;html=1;rounded=0;exitX=0.5;exitY=0;exitDx=0;exitDy=0;labelBackgroundColor=none;fontColor=default;entryX=0.5;entryY=1;entryDx=0;entryDy=0;" parent="1" source="OQcG7aROBmUX-weqK0BG-93" target="OQcG7aROBmUX-weqK0BG-98" edge="1">
          <mxGeometry relative="1" as="geometry">
            <mxPoint x="560" y="-240" as="sourcePoint" />
            <mxPoint x="636" y="-240" as="targetPoint" />
          </mxGeometry>
        </mxCell>
        <mxCell id="OQcG7aROBmUX-weqK0BG-100" value="" style="endArrow=none;html=1;rounded=0;exitX=0.5;exitY=0;exitDx=0;exitDy=0;labelBackgroundColor=none;fontColor=default;entryX=0.188;entryY=0.901;entryDx=0;entryDy=0;entryPerimeter=0;" parent="1" source="OQcG7aROBmUX-weqK0BG-93" target="OQcG7aROBmUX-weqK0BG-97" edge="1">
          <mxGeometry relative="1" as="geometry">
            <mxPoint x="540" y="-230" as="sourcePoint" />
            <mxPoint x="616" y="-230" as="targetPoint" />
          </mxGeometry>
        </mxCell>
        <mxCell id="OQcG7aROBmUX-weqK0BG-101" value="" style="endArrow=none;html=1;rounded=0;exitX=0.25;exitY=1;exitDx=0;exitDy=0;labelBackgroundColor=none;fontColor=default;entryX=0.61;entryY=0.017;entryDx=0;entryDy=0;entryPerimeter=0;" parent="1" source="OQcG7aROBmUX-weqK0BG-93" target="OQcG7aROBmUX-weqK0BG-96" edge="1">
          <mxGeometry relative="1" as="geometry">
            <mxPoint x="560" y="-240" as="sourcePoint" />
            <mxPoint x="636" y="-240" as="targetPoint" />
            <Array as="points" />
          </mxGeometry>
        </mxCell>
        <mxCell id="OQcG7aROBmUX-weqK0BG-102" value="" style="endArrow=none;html=1;rounded=0;exitX=0.5;exitY=1;exitDx=0;exitDy=0;labelBackgroundColor=none;fontColor=default;entryX=0.5;entryY=0;entryDx=0;entryDy=0;" parent="1" source="OQcG7aROBmUX-weqK0BG-95" target="OQcG7aROBmUX-weqK0BG-93" edge="1">
          <mxGeometry relative="1" as="geometry">
            <mxPoint x="540" y="-240" as="sourcePoint" />
            <mxPoint x="616" y="-240" as="targetPoint" />
          </mxGeometry>
        </mxCell>
        <mxCell id="OQcG7aROBmUX-weqK0BG-108" value="Product-Aisle Management" style="rounded=0;arcSize=10;whiteSpace=wrap;html=1;align=center;labelBackgroundColor=none;" parent="1" vertex="1">
          <mxGeometry x="-179" y="30" width="100" height="40" as="geometry" />
        </mxCell>
        <mxCell id="OQcG7aROBmUX-weqK0BG-109" value="" style="endArrow=none;html=1;rounded=0;entryX=0.5;entryY=0;entryDx=0;entryDy=0;labelBackgroundColor=none;fontColor=default;exitX=0.5;exitY=1;exitDx=0;exitDy=0;shape=link;" parent="1" source="SYYZpPilES1rbt3dCbsm-26" target="OQcG7aROBmUX-weqK0BG-108" edge="1">
          <mxGeometry relative="1" as="geometry">
            <mxPoint x="-130" y="-100" as="sourcePoint" />
            <mxPoint x="20" y="40" as="targetPoint" />
          </mxGeometry>
        </mxCell>
        <mxCell id="OQcG7aROBmUX-weqK0BG-110" value="" style="endArrow=none;html=1;rounded=0;exitX=0.5;exitY=1;exitDx=0;exitDy=0;labelBackgroundColor=none;fontColor=default;entryX=0.978;entryY=0.51;entryDx=0;entryDy=0;entryPerimeter=0;" parent="1" source="9179TzxeBBv2wxfT4U8i-2" target="9179TzxeBBv2wxfT4U8i-51" edge="1">
          <mxGeometry relative="1" as="geometry">
            <mxPoint x="-100" y="-680" as="sourcePoint" />
            <mxPoint x="-70" y="-525" as="targetPoint" />
          </mxGeometry>
        </mxCell>
        <mxCell id="OQcG7aROBmUX-weqK0BG-112" value="&amp;nbsp;Placed in" style="shape=rhombus;perimeter=rhombusPerimeter;whiteSpace=wrap;html=1;align=center;fillStyle=auto;labelBackgroundColor=none;" parent="1" vertex="1">
          <mxGeometry x="-399" y="20" width="120" height="60" as="geometry" />
        </mxCell>
        <mxCell id="OQcG7aROBmUX-weqK0BG-113" value="Ordered for" style="shape=rhombus;perimeter=rhombusPerimeter;whiteSpace=wrap;html=1;align=center;fillStyle=auto;labelBackgroundColor=none;" parent="1" vertex="1">
          <mxGeometry x="15" y="20" width="120" height="60" as="geometry" />
        </mxCell>
        <mxCell id="OQcG7aROBmUX-weqK0BG-114" value="Supplies" style="shape=rhombus;perimeter=rhombusPerimeter;whiteSpace=wrap;html=1;align=center;fillStyle=auto;labelBackgroundColor=none;" parent="1" vertex="1">
          <mxGeometry x="16" y="305" width="120" height="60" as="geometry" />
        </mxCell>
        <mxCell id="OQcG7aROBmUX-weqK0BG-115" value="Aisle" style="rounded=0;arcSize=10;whiteSpace=wrap;html=1;align=center;labelBackgroundColor=none;" parent="1" vertex="1">
          <mxGeometry x="-389" y="200" width="100" height="40" as="geometry" />
        </mxCell>
        <mxCell id="OQcG7aROBmUX-weqK0BG-116" value="Product" style="rounded=0;arcSize=10;whiteSpace=wrap;html=1;align=center;labelBackgroundColor=none;" parent="1" vertex="1">
          <mxGeometry x="26" y="200" width="100" height="40" as="geometry" />
        </mxCell>
        <mxCell id="OQcG7aROBmUX-weqK0BG-117" value="Supplier" style="rounded=0;arcSize=10;whiteSpace=wrap;html=1;align=center;labelBackgroundColor=none;" parent="1" vertex="1">
          <mxGeometry x="26" y="430" width="100" height="40" as="geometry" />
        </mxCell>
        <mxCell id="OQcG7aROBmUX-weqK0BG-118" value="" style="endArrow=none;html=1;rounded=0;entryX=0.5;entryY=0;entryDx=0;entryDy=0;exitX=0.5;exitY=1;exitDx=0;exitDy=0;labelBackgroundColor=none;fontColor=default;" parent="1" source="OQcG7aROBmUX-weqK0BG-112" target="OQcG7aROBmUX-weqK0BG-115" edge="1">
          <mxGeometry relative="1" as="geometry">
            <mxPoint x="-259" y="190" as="sourcePoint" />
            <mxPoint x="-259" y="310" as="targetPoint" />
          </mxGeometry>
        </mxCell>
        <mxCell id="OQcG7aROBmUX-weqK0BG-120" value="" style="endArrow=none;html=1;rounded=0;entryX=0.5;entryY=0;entryDx=0;entryDy=0;exitX=0.5;exitY=1;exitDx=0;exitDy=0;labelBackgroundColor=none;fontColor=default;" parent="1" source="OQcG7aROBmUX-weqK0BG-116" target="OQcG7aROBmUX-weqK0BG-114" edge="1">
          <mxGeometry relative="1" as="geometry">
            <mxPoint x="-99" y="360" as="sourcePoint" />
            <mxPoint x="-99" y="480" as="targetPoint" />
          </mxGeometry>
        </mxCell>
        <mxCell id="OQcG7aROBmUX-weqK0BG-121" value="" style="endArrow=none;html=1;rounded=0;entryX=0.5;entryY=0;entryDx=0;entryDy=0;exitX=0.5;exitY=1;exitDx=0;exitDy=0;labelBackgroundColor=none;fontColor=default;" parent="1" source="OQcG7aROBmUX-weqK0BG-114" target="OQcG7aROBmUX-weqK0BG-117" edge="1">
          <mxGeometry relative="1" as="geometry">
            <mxPoint x="-189" y="490" as="sourcePoint" />
            <mxPoint x="-189" y="610" as="targetPoint" />
          </mxGeometry>
        </mxCell>
        <mxCell id="OQcG7aROBmUX-weqK0BG-122" value="" style="endArrow=none;html=1;rounded=0;entryX=0;entryY=0.5;entryDx=0;entryDy=0;exitX=1;exitY=0.5;exitDx=0;exitDy=0;labelBackgroundColor=none;fontColor=default;" parent="1" source="OQcG7aROBmUX-weqK0BG-112" target="OQcG7aROBmUX-weqK0BG-108" edge="1">
          <mxGeometry relative="1" as="geometry">
            <mxPoint x="-179" y="110" as="sourcePoint" />
            <mxPoint x="-179" y="230" as="targetPoint" />
          </mxGeometry>
        </mxCell>
        <mxCell id="OQcG7aROBmUX-weqK0BG-123" value="" style="endArrow=none;html=1;rounded=0;entryX=0;entryY=0.5;entryDx=0;entryDy=0;labelBackgroundColor=none;fontColor=default;exitX=1;exitY=0.5;exitDx=0;exitDy=0;" parent="1" source="OQcG7aROBmUX-weqK0BG-108" target="OQcG7aROBmUX-weqK0BG-113" edge="1">
          <mxGeometry relative="1" as="geometry">
            <mxPoint x="-79" y="40" as="sourcePoint" />
            <mxPoint x="-149" y="320" as="targetPoint" />
          </mxGeometry>
        </mxCell>
        <mxCell id="OQcG7aROBmUX-weqK0BG-125" value="&lt;u&gt;Allocation ID&lt;/u&gt;" style="ellipse;whiteSpace=wrap;html=1;align=center;labelBackgroundColor=none;rounded=0;gradientDirection=north;" parent="1" vertex="1">
          <mxGeometry x="-260" y="-30" width="100" height="40" as="geometry" />
        </mxCell>
        <mxCell id="OQcG7aROBmUX-weqK0BG-126" value="Date of allocation" style="ellipse;whiteSpace=wrap;html=1;align=center;labelBackgroundColor=none;rounded=0;gradientDirection=north;" parent="1" vertex="1">
          <mxGeometry x="-120" y="-38.75" width="100" height="40" as="geometry" />
        </mxCell>
        <mxCell id="OQcG7aROBmUX-weqK0BG-127" value="Section" style="ellipse;whiteSpace=wrap;html=1;align=center;labelBackgroundColor=none;rounded=0;gradientDirection=north;" parent="1" vertex="1">
          <mxGeometry x="-469" y="290" width="100" height="40" as="geometry" />
        </mxCell>
        <mxCell id="OQcG7aROBmUX-weqK0BG-128" value="&lt;u&gt;Aisle Number&lt;/u&gt;" style="ellipse;whiteSpace=wrap;html=1;align=center;labelBackgroundColor=none;rounded=0;gradientDirection=north;" parent="1" vertex="1">
          <mxGeometry x="-319" y="290" width="100" height="40" as="geometry" />
        </mxCell>
        <mxCell id="OQcG7aROBmUX-weqK0BG-129" value="Description" style="ellipse;whiteSpace=wrap;html=1;align=center;labelBackgroundColor=none;rounded=0;gradientDirection=north;" parent="1" vertex="1">
          <mxGeometry x="-200" y="190" width="100" height="40" as="geometry" />
        </mxCell>
        <mxCell id="SYYZpPilES1rbt3dCbsm-28" style="edgeStyle=orthogonalEdgeStyle;rounded=0;orthogonalLoop=1;jettySize=auto;html=1;exitX=0;exitY=1;exitDx=0;exitDy=0;" parent="1" source="OQcG7aROBmUX-weqK0BG-130" edge="1">
          <mxGeometry relative="1" as="geometry">
            <mxPoint x="-150" y="280" as="targetPoint" />
          </mxGeometry>
        </mxCell>
        <mxCell id="OQcG7aROBmUX-weqK0BG-130" value="Product type" style="ellipse;whiteSpace=wrap;html=1;align=center;labelBackgroundColor=none;rounded=0;gradientDirection=north;" parent="1" vertex="1">
          <mxGeometry x="-181.5" y="240" width="100" height="40" as="geometry" />
        </mxCell>
        <mxCell id="OQcG7aROBmUX-weqK0BG-131" value="Quantity" style="ellipse;whiteSpace=wrap;html=1;align=center;labelBackgroundColor=none;rounded=0;gradientDirection=north;" parent="1" vertex="1">
          <mxGeometry x="-126" y="290" width="100" height="40" as="geometry" />
        </mxCell>
        <mxCell id="OQcG7aROBmUX-weqK0BG-132" value="&lt;u&gt;Product ID&lt;/u&gt;" style="ellipse;whiteSpace=wrap;html=1;align=center;labelBackgroundColor=none;rounded=0;gradientDirection=north;" parent="1" vertex="1">
          <mxGeometry x="-140" y="145" width="100" height="40" as="geometry" />
        </mxCell>
        <mxCell id="OQcG7aROBmUX-weqK0BG-133" value="" style="endArrow=none;html=1;rounded=0;entryX=0.5;entryY=0;entryDx=0;entryDy=0;exitX=0.5;exitY=1;exitDx=0;exitDy=0;labelBackgroundColor=none;fontColor=default;" parent="1" source="OQcG7aROBmUX-weqK0BG-125" target="OQcG7aROBmUX-weqK0BG-108" edge="1">
          <mxGeometry relative="1" as="geometry">
            <mxPoint x="-559" y="200" as="sourcePoint" />
            <mxPoint x="-559" y="320" as="targetPoint" />
          </mxGeometry>
        </mxCell>
        <mxCell id="OQcG7aROBmUX-weqK0BG-134" value="&lt;u&gt;Supplier ID&lt;/u&gt;" style="ellipse;whiteSpace=wrap;html=1;align=center;labelBackgroundColor=none;rounded=0;gradientDirection=north;" parent="1" vertex="1">
          <mxGeometry x="-46" y="530" width="100" height="40" as="geometry" />
        </mxCell>
        <mxCell id="OQcG7aROBmUX-weqK0BG-135" value="Supplier Name" style="ellipse;whiteSpace=wrap;html=1;align=center;labelBackgroundColor=none;rounded=0;gradientDirection=north;" parent="1" vertex="1">
          <mxGeometry x="81" y="520" width="100" height="40" as="geometry" />
        </mxCell>
        <mxCell id="OQcG7aROBmUX-weqK0BG-137" value="" style="endArrow=none;html=1;rounded=0;entryX=0.5;entryY=1;entryDx=0;entryDy=0;labelBackgroundColor=none;fontColor=default;exitX=0.5;exitY=0;exitDx=0;exitDy=0;" parent="1" source="OQcG7aROBmUX-weqK0BG-108" target="OQcG7aROBmUX-weqK0BG-126" edge="1">
          <mxGeometry relative="1" as="geometry">
            <mxPoint x="-29" y="40" as="sourcePoint" />
            <mxPoint x="192" y="-70" as="targetPoint" />
          </mxGeometry>
        </mxCell>
        <mxCell id="OQcG7aROBmUX-weqK0BG-138" value="" style="endArrow=none;html=1;rounded=0;entryX=0.5;entryY=0;entryDx=0;entryDy=0;exitX=0.5;exitY=1;exitDx=0;exitDy=0;labelBackgroundColor=none;fontColor=default;" parent="1" source="OQcG7aROBmUX-weqK0BG-115" edge="1">
          <mxGeometry relative="1" as="geometry">
            <mxPoint x="-469" y="250" as="sourcePoint" />
            <mxPoint x="-399" y="290" as="targetPoint" />
          </mxGeometry>
        </mxCell>
        <mxCell id="OQcG7aROBmUX-weqK0BG-139" value="" style="endArrow=none;html=1;rounded=0;entryX=0.5;entryY=0;entryDx=0;entryDy=0;exitX=0.5;exitY=1;exitDx=0;exitDy=0;labelBackgroundColor=none;fontColor=default;" parent="1" source="OQcG7aROBmUX-weqK0BG-115" target="OQcG7aROBmUX-weqK0BG-128" edge="1">
          <mxGeometry relative="1" as="geometry">
            <mxPoint x="-389" y="410" as="sourcePoint" />
            <mxPoint x="-308" y="450" as="targetPoint" />
          </mxGeometry>
        </mxCell>
        <mxCell id="OQcG7aROBmUX-weqK0BG-140" value="" style="endArrow=none;html=1;rounded=0;exitX=0.5;exitY=1;exitDx=0;exitDy=0;labelBackgroundColor=none;fontColor=default;entryX=0;entryY=0.5;entryDx=0;entryDy=0;" parent="1" source="OQcG7aROBmUX-weqK0BG-132" target="OQcG7aROBmUX-weqK0BG-116" edge="1">
          <mxGeometry relative="1" as="geometry">
            <mxPoint x="-159" y="360" as="sourcePoint" />
            <mxPoint x="15" y="210" as="targetPoint" />
          </mxGeometry>
        </mxCell>
        <mxCell id="OQcG7aROBmUX-weqK0BG-141" value="" style="endArrow=none;html=1;rounded=0;entryX=0;entryY=0.5;entryDx=0;entryDy=0;exitX=1;exitY=0.5;exitDx=0;exitDy=0;labelBackgroundColor=none;fontColor=default;" parent="1" source="OQcG7aROBmUX-weqK0BG-129" target="OQcG7aROBmUX-weqK0BG-116" edge="1">
          <mxGeometry relative="1" as="geometry">
            <mxPoint x="-189" y="370" as="sourcePoint" />
            <mxPoint x="-108" y="410" as="targetPoint" />
          </mxGeometry>
        </mxCell>
        <mxCell id="OQcG7aROBmUX-weqK0BG-142" value="" style="endArrow=none;html=1;rounded=0;entryX=0;entryY=0.5;entryDx=0;entryDy=0;exitX=1;exitY=0.5;exitDx=0;exitDy=0;labelBackgroundColor=none;fontColor=default;" parent="1" source="OQcG7aROBmUX-weqK0BG-130" target="OQcG7aROBmUX-weqK0BG-116" edge="1">
          <mxGeometry relative="1" as="geometry">
            <mxPoint x="-69" y="330" as="sourcePoint" />
            <mxPoint x="12" y="370" as="targetPoint" />
          </mxGeometry>
        </mxCell>
        <mxCell id="OQcG7aROBmUX-weqK0BG-143" value="" style="endArrow=none;html=1;rounded=0;entryX=0;entryY=0.5;entryDx=0;entryDy=0;exitX=1;exitY=0.5;exitDx=0;exitDy=0;labelBackgroundColor=none;fontColor=default;" parent="1" source="OQcG7aROBmUX-weqK0BG-131" target="OQcG7aROBmUX-weqK0BG-116" edge="1">
          <mxGeometry relative="1" as="geometry">
            <mxPoint x="-169" y="420" as="sourcePoint" />
            <mxPoint x="-88" y="460" as="targetPoint" />
          </mxGeometry>
        </mxCell>
        <mxCell id="OQcG7aROBmUX-weqK0BG-144" value="" style="endArrow=none;html=1;rounded=0;entryX=0.5;entryY=0;entryDx=0;entryDy=0;exitX=0.5;exitY=1;exitDx=0;exitDy=0;labelBackgroundColor=none;fontColor=default;" parent="1" source="OQcG7aROBmUX-weqK0BG-117" target="OQcG7aROBmUX-weqK0BG-134" edge="1">
          <mxGeometry relative="1" as="geometry">
            <mxPoint x="-119" y="440" as="sourcePoint" />
            <mxPoint x="-38" y="480" as="targetPoint" />
          </mxGeometry>
        </mxCell>
        <mxCell id="OQcG7aROBmUX-weqK0BG-146" value="Issues" style="shape=rhombus;perimeter=rhombusPerimeter;whiteSpace=wrap;html=1;align=center;fillStyle=auto;labelBackgroundColor=none;" parent="1" vertex="1">
          <mxGeometry x="710" y="-308.75" width="95" height="60" as="geometry" />
        </mxCell>
        <mxCell id="OQcG7aROBmUX-weqK0BG-147" value="Voucher" style="rounded=0;whiteSpace=wrap;html=1;fillStyle=auto;labelBackgroundColor=none;" parent="1" vertex="1">
          <mxGeometry x="880" y="-300" width="100" height="42.5" as="geometry" />
        </mxCell>
        <mxCell id="OQcG7aROBmUX-weqK0BG-149" value="" style="endArrow=none;html=1;rounded=0;exitX=1;exitY=0.5;exitDx=0;exitDy=0;labelBackgroundColor=none;fontColor=default;entryX=0;entryY=0.5;entryDx=0;entryDy=0;" parent="1" source="OQcG7aROBmUX-weqK0BG-93" target="OQcG7aROBmUX-weqK0BG-146" edge="1">
          <mxGeometry relative="1" as="geometry">
            <mxPoint x="670" y="-220" as="sourcePoint" />
            <mxPoint x="745" y="-220" as="targetPoint" />
          </mxGeometry>
        </mxCell>
        <mxCell id="OQcG7aROBmUX-weqK0BG-150" value="" style="endArrow=none;html=1;rounded=0;exitX=1;exitY=0.5;exitDx=0;exitDy=0;labelBackgroundColor=none;fontColor=default;entryX=0;entryY=0.5;entryDx=0;entryDy=0;" parent="1" source="OQcG7aROBmUX-weqK0BG-146" target="OQcG7aROBmUX-weqK0BG-147" edge="1">
          <mxGeometry relative="1" as="geometry">
            <mxPoint x="810" y="-190" as="sourcePoint" />
            <mxPoint x="885" y="-190" as="targetPoint" />
          </mxGeometry>
        </mxCell>
        <mxCell id="OQcG7aROBmUX-weqK0BG-151" value="&lt;u&gt;Voucher ID&lt;/u&gt;" style="ellipse;whiteSpace=wrap;html=1;align=center;labelBackgroundColor=none;rounded=0;" parent="1" vertex="1">
          <mxGeometry x="805" y="-394" width="82" height="40" as="geometry" />
        </mxCell>
        <mxCell id="OQcG7aROBmUX-weqK0BG-152" value="Issue Date" style="ellipse;whiteSpace=wrap;html=1;align=center;labelBackgroundColor=none;rounded=0;" parent="1" vertex="1">
          <mxGeometry x="900" y="-420" width="82" height="40" as="geometry" />
        </mxCell>
        <mxCell id="OQcG7aROBmUX-weqK0BG-153" value="" style="endArrow=none;html=1;rounded=0;exitX=0.5;exitY=1;exitDx=0;exitDy=0;labelBackgroundColor=none;fontColor=default;entryX=0.5;entryY=0;entryDx=0;entryDy=0;" parent="1" source="OQcG7aROBmUX-weqK0BG-151" target="OQcG7aROBmUX-weqK0BG-147" edge="1">
          <mxGeometry relative="1" as="geometry">
            <mxPoint x="1050" y="-510" as="sourcePoint" />
            <mxPoint x="1201" y="-550" as="targetPoint" />
          </mxGeometry>
        </mxCell>
        <mxCell id="OQcG7aROBmUX-weqK0BG-154" value="" style="endArrow=none;html=1;rounded=0;exitX=0.5;exitY=0;exitDx=0;exitDy=0;labelBackgroundColor=none;fontColor=default;entryX=0.5;entryY=1;entryDx=0;entryDy=0;" parent="1" source="OQcG7aROBmUX-weqK0BG-147" target="OQcG7aROBmUX-weqK0BG-152" edge="1">
          <mxGeometry relative="1" as="geometry">
            <mxPoint x="1170" y="-420" as="sourcePoint" />
            <mxPoint x="1321" y="-460" as="targetPoint" />
          </mxGeometry>
        </mxCell>
        <mxCell id="OQcG7aROBmUX-weqK0BG-155" value="Sale" style="rounded=0;whiteSpace=wrap;html=1;fillStyle=auto;labelBackgroundColor=none;" parent="1" vertex="1">
          <mxGeometry x="830" y="-81.25" width="100" height="42.5" as="geometry" />
        </mxCell>
        <mxCell id="OQcG7aROBmUX-weqK0BG-156" value="" style="endArrow=none;html=1;rounded=0;exitX=1;exitY=0.5;exitDx=0;exitDy=0;labelBackgroundColor=none;fontColor=default;entryX=0;entryY=0.5;entryDx=0;entryDy=0;shape=link;" parent="1" source="OQcG7aROBmUX-weqK0BG-163" target="OQcG7aROBmUX-weqK0BG-155" edge="1">
          <mxGeometry relative="1" as="geometry">
            <mxPoint x="808" y="-129" as="sourcePoint" />
            <mxPoint x="888" y="-40" as="targetPoint" />
          </mxGeometry>
        </mxCell>
        <mxCell id="OQcG7aROBmUX-weqK0BG-157" value="&lt;u&gt;Sale ID&lt;/u&gt;" style="ellipse;whiteSpace=wrap;html=1;align=center;labelBackgroundColor=none;rounded=0;" parent="1" vertex="1">
          <mxGeometry x="770" y="5" width="82" height="40" as="geometry" />
        </mxCell>
        <mxCell id="OQcG7aROBmUX-weqK0BG-158" value="Conditions" style="ellipse;whiteSpace=wrap;html=1;align=center;labelBackgroundColor=none;rounded=0;" parent="1" vertex="1">
          <mxGeometry x="880" y="-160" width="82" height="40" as="geometry" />
        </mxCell>
        <mxCell id="OQcG7aROBmUX-weqK0BG-159" value="" style="endArrow=none;html=1;rounded=0;labelBackgroundColor=none;fontColor=default;entryX=0.25;entryY=1;entryDx=0;entryDy=0;" parent="1" source="OQcG7aROBmUX-weqK0BG-157" target="OQcG7aROBmUX-weqK0BG-155" edge="1">
          <mxGeometry relative="1" as="geometry">
            <mxPoint x="1053" y="-360" as="sourcePoint" />
            <mxPoint x="1204" y="-400" as="targetPoint" />
          </mxGeometry>
        </mxCell>
        <mxCell id="OQcG7aROBmUX-weqK0BG-160" value="" style="endArrow=none;html=1;rounded=0;exitX=0.5;exitY=0;exitDx=0;exitDy=0;labelBackgroundColor=none;fontColor=default;entryX=0.5;entryY=1;entryDx=0;entryDy=0;" parent="1" source="OQcG7aROBmUX-weqK0BG-155" target="OQcG7aROBmUX-weqK0BG-158" edge="1">
          <mxGeometry relative="1" as="geometry">
            <mxPoint x="1173" y="-270" as="sourcePoint" />
            <mxPoint x="1324" y="-310" as="targetPoint" />
          </mxGeometry>
        </mxCell>
        <mxCell id="OQcG7aROBmUX-weqK0BG-161" value="Date of Issue" style="ellipse;whiteSpace=wrap;html=1;align=center;labelBackgroundColor=none;rounded=0;" parent="1" vertex="1">
          <mxGeometry x="871" y="15" width="100" height="40" as="geometry" />
        </mxCell>
        <mxCell id="OQcG7aROBmUX-weqK0BG-162" value="" style="endArrow=none;html=1;rounded=0;exitX=0.5;exitY=0;exitDx=0;exitDy=0;labelBackgroundColor=none;fontColor=default;" parent="1" source="OQcG7aROBmUX-weqK0BG-155" edge="1">
          <mxGeometry relative="1" as="geometry">
            <mxPoint x="1080" y="-150" as="sourcePoint" />
            <mxPoint x="880" y="-81" as="targetPoint" />
          </mxGeometry>
        </mxCell>
        <mxCell id="OQcG7aROBmUX-weqK0BG-163" value="Offers" style="shape=rhombus;perimeter=rhombusPerimeter;whiteSpace=wrap;html=1;align=center;fillStyle=auto;labelBackgroundColor=none;" parent="1" vertex="1">
          <mxGeometry x="525" y="-90" width="90" height="60" as="geometry" />
        </mxCell>
        <mxCell id="OQcG7aROBmUX-weqK0BG-167" value="Orders" style="rounded=0;whiteSpace=wrap;html=1;fillStyle=auto;labelBackgroundColor=none;" parent="1" vertex="1">
          <mxGeometry x="690" y="-692.75" width="100" height="42.5" as="geometry" />
        </mxCell>
        <mxCell id="OQcG7aROBmUX-weqK0BG-168" value="&lt;u&gt;Order Num&lt;/u&gt;" style="ellipse;whiteSpace=wrap;html=1;align=center;labelBackgroundColor=none;rounded=0;" parent="1" vertex="1">
          <mxGeometry x="690" y="-820" width="100" height="40" as="geometry" />
        </mxCell>
        <mxCell id="OQcG7aROBmUX-weqK0BG-169" value="" style="endArrow=none;html=1;rounded=0;labelBackgroundColor=none;fontColor=default;entryX=0.5;entryY=1;entryDx=0;entryDy=0;exitX=0.5;exitY=0;exitDx=0;exitDy=0;" parent="1" source="OQcG7aROBmUX-weqK0BG-167" target="OQcG7aROBmUX-weqK0BG-168" edge="1">
          <mxGeometry relative="1" as="geometry">
            <mxPoint x="536" y="-764" as="sourcePoint" />
            <mxPoint x="536" y="-794" as="targetPoint" />
          </mxGeometry>
        </mxCell>
        <mxCell id="OQcG7aROBmUX-weqK0BG-170" value="Orders online" style="shape=rhombus;perimeter=rhombusPerimeter;whiteSpace=wrap;html=1;align=center;fillStyle=auto;labelBackgroundColor=none;" parent="1" vertex="1">
          <mxGeometry x="410" y="-700" width="91" height="60" as="geometry" />
        </mxCell>
        <mxCell id="OQcG7aROBmUX-weqK0BG-171" value="" style="endArrow=none;html=1;rounded=0;labelBackgroundColor=none;fontColor=default;exitX=1;exitY=0.5;exitDx=0;exitDy=0;entryX=0;entryY=0.5;entryDx=0;entryDy=0;shape=link;" parent="1" source="OQcG7aROBmUX-weqK0BG-170" target="OQcG7aROBmUX-weqK0BG-167" edge="1">
          <mxGeometry relative="1" as="geometry">
            <mxPoint x="496" y="-764" as="sourcePoint" />
            <mxPoint x="496" y="-729" as="targetPoint" />
          </mxGeometry>
        </mxCell>
        <mxCell id="OQcG7aROBmUX-weqK0BG-173" value="" style="endArrow=none;html=1;rounded=0;labelBackgroundColor=none;fontColor=default;entryX=1;entryY=0.5;entryDx=0;entryDy=0;exitX=0;exitY=0.5;exitDx=0;exitDy=0;" parent="1" source="OQcG7aROBmUX-weqK0BG-170" target="OQcG7aROBmUX-weqK0BG-49" edge="1">
          <mxGeometry relative="1" as="geometry">
            <mxPoint x="356" y="-804" as="sourcePoint" />
            <mxPoint x="355" y="-854" as="targetPoint" />
          </mxGeometry>
        </mxCell>
        <mxCell id="OQcG7aROBmUX-weqK0BG-174" value="Date" style="ellipse;whiteSpace=wrap;html=1;align=center;labelBackgroundColor=none;rounded=0;" parent="1" vertex="1">
          <mxGeometry x="566" y="-804" width="100" height="40" as="geometry" />
        </mxCell>
        <mxCell id="OQcG7aROBmUX-weqK0BG-175" value="Amount" style="ellipse;whiteSpace=wrap;html=1;align=center;labelBackgroundColor=none;rounded=0;" parent="1" vertex="1">
          <mxGeometry x="827" y="-810" width="100" height="40" as="geometry" />
        </mxCell>
        <mxCell id="OQcG7aROBmUX-weqK0BG-177" value="" style="endArrow=none;html=1;rounded=0;labelBackgroundColor=none;fontColor=default;exitX=0.5;exitY=0;exitDx=0;exitDy=0;entryX=0.5;entryY=1;entryDx=0;entryDy=0;" parent="1" source="OQcG7aROBmUX-weqK0BG-167" target="OQcG7aROBmUX-weqK0BG-175" edge="1">
          <mxGeometry relative="1" as="geometry">
            <mxPoint x="716" y="-634" as="sourcePoint" />
            <mxPoint x="786" y="-634" as="targetPoint" />
          </mxGeometry>
        </mxCell>
        <mxCell id="OQcG7aROBmUX-weqK0BG-178" value="" style="endArrow=none;html=1;rounded=0;labelBackgroundColor=none;fontColor=default;exitX=0.5;exitY=1;exitDx=0;exitDy=0;entryX=0.5;entryY=0;entryDx=0;entryDy=0;" parent="1" source="OQcG7aROBmUX-weqK0BG-174" target="OQcG7aROBmUX-weqK0BG-167" edge="1">
          <mxGeometry relative="1" as="geometry">
            <mxPoint x="516" y="-584" as="sourcePoint" />
            <mxPoint x="586" y="-584" as="targetPoint" />
          </mxGeometry>
        </mxCell>
        <mxCell id="OQcG7aROBmUX-weqK0BG-180" value="Bill" style="rounded=0;arcSize=10;whiteSpace=wrap;html=1;align=center;labelBackgroundColor=none;" parent="1" vertex="1">
          <mxGeometry x="288" y="175" width="100" height="40" as="geometry" />
        </mxCell>
        <mxCell id="OQcG7aROBmUX-weqK0BG-181" value="&lt;u&gt;Bill ID&lt;/u&gt;" style="ellipse;whiteSpace=wrap;html=1;align=center;labelBackgroundColor=none;rounded=0;gradientDirection=north;" parent="1" vertex="1">
          <mxGeometry x="218" y="295" width="100" height="40" as="geometry" />
        </mxCell>
        <mxCell id="OQcG7aROBmUX-weqK0BG-182" value="Bill Amount" style="ellipse;whiteSpace=wrap;html=1;align=center;labelBackgroundColor=none;rounded=0;gradientDirection=north;" parent="1" vertex="1">
          <mxGeometry x="288" y="365" width="100" height="40" as="geometry" />
        </mxCell>
        <mxCell id="OQcG7aROBmUX-weqK0BG-183" value="" style="endArrow=none;html=1;rounded=0;entryX=0.5;entryY=0;entryDx=0;entryDy=0;exitX=0.5;exitY=1;exitDx=0;exitDy=0;labelBackgroundColor=none;fontColor=default;" parent="1" source="OQcG7aROBmUX-weqK0BG-180" target="OQcG7aROBmUX-weqK0BG-181" edge="1">
          <mxGeometry relative="1" as="geometry">
            <mxPoint x="315" y="145" as="sourcePoint" />
            <mxPoint x="396" y="185" as="targetPoint" />
          </mxGeometry>
        </mxCell>
        <mxCell id="OQcG7aROBmUX-weqK0BG-184" value="" style="endArrow=none;html=1;rounded=0;entryX=0.5;entryY=0;entryDx=0;entryDy=0;exitX=0.5;exitY=1;exitDx=0;exitDy=0;labelBackgroundColor=none;fontColor=default;" parent="1" source="OQcG7aROBmUX-weqK0BG-180" target="OQcG7aROBmUX-weqK0BG-182" edge="1">
          <mxGeometry relative="1" as="geometry">
            <mxPoint x="505" y="245" as="sourcePoint" />
            <mxPoint x="586" y="285" as="targetPoint" />
          </mxGeometry>
        </mxCell>
        <mxCell id="OQcG7aROBmUX-weqK0BG-185" value="Checks out" style="shape=rhombus;perimeter=rhombusPerimeter;whiteSpace=wrap;html=1;align=center;fillStyle=auto;labelBackgroundColor=none;" parent="1" vertex="1">
          <mxGeometry x="280" y="-40" width="120" height="60" as="geometry" />
        </mxCell>
        <mxCell id="OQcG7aROBmUX-weqK0BG-188" value="Payment method" style="ellipse;whiteSpace=wrap;html=1;align=center;labelBackgroundColor=none;rounded=0;gradientDirection=north;" parent="1" vertex="1">
          <mxGeometry x="368" y="315" width="100" height="40" as="geometry" />
        </mxCell>
        <mxCell id="OQcG7aROBmUX-weqK0BG-189" value="Bill Date" style="ellipse;whiteSpace=wrap;html=1;align=center;labelBackgroundColor=none;rounded=0;gradientDirection=north;" parent="1" vertex="1">
          <mxGeometry x="395.5" y="255" width="100" height="40" as="geometry" />
        </mxCell>
        <mxCell id="OQcG7aROBmUX-weqK0BG-192" value="" style="endArrow=none;html=1;rounded=0;entryX=0;entryY=0.5;entryDx=0;entryDy=0;exitX=0.5;exitY=1;exitDx=0;exitDy=0;labelBackgroundColor=none;fontColor=default;" parent="1" source="OQcG7aROBmUX-weqK0BG-180" target="OQcG7aROBmUX-weqK0BG-188" edge="1">
          <mxGeometry relative="1" as="geometry">
            <mxPoint x="528" y="165" as="sourcePoint" />
            <mxPoint x="527" y="315" as="targetPoint" />
          </mxGeometry>
        </mxCell>
        <mxCell id="OQcG7aROBmUX-weqK0BG-193" value="" style="endArrow=none;html=1;rounded=0;entryX=0;entryY=0.5;entryDx=0;entryDy=0;exitX=0.5;exitY=1;exitDx=0;exitDy=0;labelBackgroundColor=none;fontColor=default;" parent="1" source="OQcG7aROBmUX-weqK0BG-180" target="OQcG7aROBmUX-weqK0BG-189" edge="1">
          <mxGeometry relative="1" as="geometry">
            <mxPoint x="528" y="155" as="sourcePoint" />
            <mxPoint x="527" y="305" as="targetPoint" />
          </mxGeometry>
        </mxCell>
        <mxCell id="OQcG7aROBmUX-weqK0BG-195" value="" style="endArrow=none;html=1;rounded=0;entryX=0.5;entryY=0;entryDx=0;entryDy=0;exitX=0.5;exitY=1;exitDx=0;exitDy=0;labelBackgroundColor=none;fontColor=default;shape=link;" parent="1" source="OQcG7aROBmUX-weqK0BG-185" target="OQcG7aROBmUX-weqK0BG-180" edge="1">
          <mxGeometry relative="1" as="geometry">
            <mxPoint x="658" y="115" as="sourcePoint" />
            <mxPoint x="658" y="435" as="targetPoint" />
          </mxGeometry>
        </mxCell>
        <mxCell id="OQcG7aROBmUX-weqK0BG-198" value="Generates" style="shape=rhombus;perimeter=rhombusPerimeter;whiteSpace=wrap;html=1;align=center;fillStyle=auto;labelBackgroundColor=none;" parent="1" vertex="1">
          <mxGeometry x="955" y="-950" width="120" height="60" as="geometry" />
        </mxCell>
        <mxCell id="OQcG7aROBmUX-weqK0BG-200" value="" style="endArrow=none;html=1;rounded=0;labelBackgroundColor=none;fontColor=default;entryX=0;entryY=0.5;entryDx=0;entryDy=0;exitX=0.5;exitY=0;exitDx=0;exitDy=0;" parent="1" source="9179TzxeBBv2wxfT4U8i-2" target="OQcG7aROBmUX-weqK0BG-198" edge="1">
          <mxGeometry relative="1" as="geometry">
            <mxPoint x="-80" y="-1000" as="sourcePoint" />
            <mxPoint x="1449" y="-980" as="targetPoint" />
            <Array as="points">
              <mxPoint x="-70" y="-920" />
            </Array>
          </mxGeometry>
        </mxCell>
        <mxCell id="fYfrvoICUVlCz_d68iuk-1" value="&lt;font style=&quot;font-size: 18px;&quot;&gt;(0,N)&lt;/font&gt;" style="text;html=1;align=center;verticalAlign=middle;whiteSpace=wrap;rounded=0;" parent="1" vertex="1">
          <mxGeometry x="443" y="-960" width="65" height="30" as="geometry" />
        </mxCell>
        <mxCell id="fYfrvoICUVlCz_d68iuk-2" value="&lt;font style=&quot;font-size: 16px;&quot;&gt;(1,1)&lt;/font&gt;" style="text;html=1;align=center;verticalAlign=middle;resizable=0;points=[];autosize=1;strokeColor=none;fillColor=none;" parent="1" vertex="1">
          <mxGeometry x="690" y="225" width="60" height="30" as="geometry" />
        </mxCell>
        <mxCell id="fYfrvoICUVlCz_d68iuk-5" value="&lt;font style=&quot;font-size: 16px;&quot;&gt;(0,N)&lt;/font&gt;" style="text;html=1;align=center;verticalAlign=middle;resizable=0;points=[];autosize=1;strokeColor=none;fillColor=none;" parent="1" vertex="1">
          <mxGeometry x="78.5" y="390" width="60" height="30" as="geometry" />
        </mxCell>
        <mxCell id="fYfrvoICUVlCz_d68iuk-7" value="&lt;font style=&quot;font-size: 18px;&quot;&gt;(0,N)&lt;/font&gt;" style="text;html=1;align=center;verticalAlign=middle;whiteSpace=wrap;rounded=0;" parent="1" vertex="1">
          <mxGeometry x="-69" y="10" width="65" height="30" as="geometry" />
        </mxCell>
        <mxCell id="fYfrvoICUVlCz_d68iuk-8" value="&lt;font style=&quot;font-size: 16px;&quot;&gt;(0,1)&lt;/font&gt;" style="text;html=1;align=center;verticalAlign=middle;resizable=0;points=[];autosize=1;strokeColor=none;fillColor=none;" parent="1" vertex="1">
          <mxGeometry x="-270" y="15" width="60" height="30" as="geometry" />
        </mxCell>
        <mxCell id="fYfrvoICUVlCz_d68iuk-9" value="&lt;font style=&quot;font-size: 18px;&quot;&gt;(0,N)&lt;/font&gt;" style="text;html=1;align=center;verticalAlign=middle;whiteSpace=wrap;rounded=0;" parent="1" vertex="1">
          <mxGeometry x="-344" y="115" width="65" height="30" as="geometry" />
        </mxCell>
        <mxCell id="fYfrvoICUVlCz_d68iuk-11" value="&lt;font style=&quot;font-size: 16px;&quot;&gt;(1,1)&lt;/font&gt;" style="text;html=1;align=center;verticalAlign=middle;resizable=0;points=[];autosize=1;strokeColor=none;fillColor=none;" parent="1" vertex="1">
          <mxGeometry x="-190" y="-70" width="60" height="30" as="geometry" />
        </mxCell>
        <mxCell id="fYfrvoICUVlCz_d68iuk-16" value="&lt;font style=&quot;font-size: 16px;&quot;&gt;(1,1)&lt;/font&gt;" style="text;html=1;align=center;verticalAlign=middle;resizable=0;points=[];autosize=1;strokeColor=none;fillColor=none;" parent="1" vertex="1">
          <mxGeometry x="-26" y="-314" width="60" height="30" as="geometry" />
        </mxCell>
        <mxCell id="fYfrvoICUVlCz_d68iuk-18" value="&lt;font style=&quot;font-size: 16px;&quot;&gt;(0,N)&lt;/font&gt;" style="text;html=1;align=center;verticalAlign=middle;resizable=0;points=[];autosize=1;strokeColor=none;fillColor=none;" parent="1" vertex="1">
          <mxGeometry x="441" y="-314" width="60" height="30" as="geometry" />
        </mxCell>
        <mxCell id="fYfrvoICUVlCz_d68iuk-19" value="&lt;font style=&quot;font-size: 16px;&quot;&gt;(1,1)&lt;/font&gt;" style="text;html=1;align=center;verticalAlign=middle;resizable=0;points=[];autosize=1;strokeColor=none;fillColor=none;" parent="1" vertex="1">
          <mxGeometry x="280" y="-308.75" width="60" height="30" as="geometry" />
        </mxCell>
        <mxCell id="fYfrvoICUVlCz_d68iuk-20" value="&lt;font style=&quot;font-size: 16px;&quot;&gt;(0,N)&lt;/font&gt;" style="text;html=1;align=center;verticalAlign=middle;resizable=0;points=[];autosize=1;strokeColor=none;fillColor=none;" parent="1" vertex="1">
          <mxGeometry x="630" y="-314" width="60" height="30" as="geometry" />
        </mxCell>
        <mxCell id="fYfrvoICUVlCz_d68iuk-21" value="&lt;font style=&quot;font-size: 16px;&quot;&gt;(0,1)&lt;/font&gt;" style="text;html=1;align=center;verticalAlign=middle;resizable=0;points=[];autosize=1;strokeColor=none;fillColor=none;" parent="1" vertex="1">
          <mxGeometry x="805" y="-314" width="60" height="30" as="geometry" />
        </mxCell>
        <mxCell id="fYfrvoICUVlCz_d68iuk-22" value="&lt;font style=&quot;font-size: 16px;&quot;&gt;(0,N)&lt;/font&gt;" style="text;html=1;align=center;verticalAlign=middle;resizable=0;points=[];autosize=1;strokeColor=none;fillColor=none;" parent="1" vertex="1">
          <mxGeometry x="566" y="-200" width="60" height="30" as="geometry" />
        </mxCell>
        <mxCell id="fYfrvoICUVlCz_d68iuk-23" value="&lt;font style=&quot;font-size: 16px;&quot;&gt;(1,1)&lt;/font&gt;" style="text;html=1;align=center;verticalAlign=middle;resizable=0;points=[];autosize=1;strokeColor=none;fillColor=none;" parent="1" vertex="1">
          <mxGeometry x="690" y="-100" width="60" height="30" as="geometry" />
        </mxCell>
        <mxCell id="fYfrvoICUVlCz_d68iuk-26" value="&lt;font style=&quot;font-size: 16px;&quot;&gt;(0,1)&lt;/font&gt;" style="text;html=1;align=center;verticalAlign=middle;resizable=0;points=[];autosize=1;strokeColor=none;fillColor=none;" parent="1" vertex="1">
          <mxGeometry x="274" y="-550" width="60" height="30" as="geometry" />
        </mxCell>
        <mxCell id="fYfrvoICUVlCz_d68iuk-27" value="&lt;font style=&quot;font-size: 18px;&quot;&gt;(0,N)&lt;/font&gt;" style="text;html=1;align=center;verticalAlign=middle;whiteSpace=wrap;rounded=0;" parent="1" vertex="1">
          <mxGeometry x="275" y="-706.25" width="65" height="30" as="geometry" />
        </mxCell>
        <mxCell id="fYfrvoICUVlCz_d68iuk-29" value="&lt;font style=&quot;font-size: 16px;&quot;&gt;(1,1)&lt;/font&gt;" style="text;html=1;align=center;verticalAlign=middle;resizable=0;points=[];autosize=1;strokeColor=none;fillColor=none;" parent="1" vertex="1">
          <mxGeometry x="341" y="70" width="60" height="30" as="geometry" />
        </mxCell>
        <mxCell id="SYYZpPilES1rbt3dCbsm-1" value="" style="endArrow=none;html=1;rounded=0;entryX=0.5;entryY=0;entryDx=0;entryDy=0;exitX=0.5;exitY=1;exitDx=0;exitDy=0;labelBackgroundColor=none;fontColor=default;" parent="1" source="OQcG7aROBmUX-weqK0BG-117" target="OQcG7aROBmUX-weqK0BG-135" edge="1">
          <mxGeometry relative="1" as="geometry">
            <mxPoint x="76" y="470" as="sourcePoint" />
            <mxPoint x="14" y="540" as="targetPoint" />
          </mxGeometry>
        </mxCell>
        <mxCell id="SYYZpPilES1rbt3dCbsm-2" value="" style="endArrow=none;html=1;rounded=0;labelBackgroundColor=none;fontColor=default;" parent="1" edge="1">
          <mxGeometry relative="1" as="geometry">
            <mxPoint x="-70" y="-160" as="sourcePoint" />
            <mxPoint x="-130" y="-160" as="targetPoint" />
          </mxGeometry>
        </mxCell>
        <mxCell id="SYYZpPilES1rbt3dCbsm-5" value="" style="endArrow=none;html=1;rounded=0;exitX=0.5;exitY=1;exitDx=0;exitDy=0;labelBackgroundColor=none;fontColor=default;shape=link;" parent="1" source="OQcG7aROBmUX-weqK0BG-198" edge="1">
          <mxGeometry relative="1" as="geometry">
            <mxPoint x="1100" y="-830" as="sourcePoint" />
            <mxPoint x="1015" y="200" as="targetPoint" />
          </mxGeometry>
        </mxCell>
        <mxCell id="SYYZpPilES1rbt3dCbsm-7" value="" style="endArrow=none;html=1;rounded=0;exitX=1;exitY=0.5;exitDx=0;exitDy=0;labelBackgroundColor=none;fontColor=default;shape=link;" parent="1" source="OQcG7aROBmUX-weqK0BG-180" edge="1">
          <mxGeometry relative="1" as="geometry">
            <mxPoint x="365" y="170" as="sourcePoint" />
            <mxPoint x="1020" y="200" as="targetPoint" />
          </mxGeometry>
        </mxCell>
        <mxCell id="SYYZpPilES1rbt3dCbsm-9" value="" style="endArrow=none;html=1;rounded=0;exitX=0.721;exitY=0.635;exitDx=0;exitDy=0;exitPerimeter=0;" parent="1" source="9179TzxeBBv2wxfT4U8i-51" edge="1">
          <mxGeometry width="50" height="50" relative="1" as="geometry">
            <mxPoint x="-60" y="-650" as="sourcePoint" />
            <mxPoint x="20" y="-650" as="targetPoint" />
            <Array as="points">
              <mxPoint x="-20" y="-650" />
            </Array>
          </mxGeometry>
        </mxCell>
        <mxCell id="SYYZpPilES1rbt3dCbsm-10" value="" style="endArrow=none;html=1;rounded=0;entryX=0;entryY=0.5;entryDx=0;entryDy=0;" parent="1" target="OQcG7aROBmUX-weqK0BG-49" edge="1">
          <mxGeometry width="50" height="50" relative="1" as="geometry">
            <mxPoint x="20" y="-670" as="sourcePoint" />
            <mxPoint x="80" y="-660" as="targetPoint" />
          </mxGeometry>
        </mxCell>
        <mxCell id="SYYZpPilES1rbt3dCbsm-11" value="" style="endArrow=none;html=1;rounded=0;" parent="1" edge="1">
          <mxGeometry width="50" height="50" relative="1" as="geometry">
            <mxPoint x="20" y="-650" as="sourcePoint" />
            <mxPoint x="20" y="-670" as="targetPoint" />
          </mxGeometry>
        </mxCell>
        <mxCell id="SYYZpPilES1rbt3dCbsm-14" value="" style="endArrow=none;html=1;rounded=0;" parent="1" edge="1">
          <mxGeometry width="50" height="50" relative="1" as="geometry">
            <mxPoint x="20" y="-520" as="sourcePoint" />
            <mxPoint x="20" y="-650" as="targetPoint" />
          </mxGeometry>
        </mxCell>
        <mxCell id="SYYZpPilES1rbt3dCbsm-15" value="" style="endArrow=none;html=1;rounded=0;entryX=-0.004;entryY=0.468;entryDx=0;entryDy=0;entryPerimeter=0;" parent="1" target="OQcG7aROBmUX-weqK0BG-52" edge="1">
          <mxGeometry width="50" height="50" relative="1" as="geometry">
            <mxPoint x="20" y="-520" as="sourcePoint" />
            <mxPoint x="110" y="-520" as="targetPoint" />
          </mxGeometry>
        </mxCell>
        <mxCell id="SYYZpPilES1rbt3dCbsm-16" value="" style="endArrow=none;html=1;rounded=0;entryX=0.022;entryY=0.668;entryDx=0;entryDy=0;exitX=0.683;exitY=-0.026;exitDx=0;exitDy=0;exitPerimeter=0;entryPerimeter=0;" parent="1" source="OQcG7aROBmUX-weqK0BG-73" target="OQcG7aROBmUX-weqK0BG-74" edge="1">
          <mxGeometry width="50" height="50" relative="1" as="geometry">
            <mxPoint x="600" y="-600" as="sourcePoint" />
            <mxPoint x="650" y="-650" as="targetPoint" />
          </mxGeometry>
        </mxCell>
        <mxCell id="SYYZpPilES1rbt3dCbsm-17" value="" style="endArrow=none;html=1;rounded=0;entryX=0.5;entryY=1;entryDx=0;entryDy=0;exitX=0.5;exitY=0;exitDx=0;exitDy=0;" parent="1" source="OQcG7aROBmUX-weqK0BG-163" target="OQcG7aROBmUX-weqK0BG-93" edge="1">
          <mxGeometry width="50" height="50" relative="1" as="geometry">
            <mxPoint x="210" y="-150" as="sourcePoint" />
            <mxPoint x="260" y="-200" as="targetPoint" />
          </mxGeometry>
        </mxCell>
        <mxCell id="SYYZpPilES1rbt3dCbsm-18" value="" style="endArrow=none;html=1;rounded=0;entryX=0.75;entryY=1;entryDx=0;entryDy=0;exitX=0.5;exitY=0;exitDx=0;exitDy=0;" parent="1" source="OQcG7aROBmUX-weqK0BG-161" target="OQcG7aROBmUX-weqK0BG-155" edge="1">
          <mxGeometry width="50" height="50" relative="1" as="geometry">
            <mxPoint x="460" y="100" as="sourcePoint" />
            <mxPoint x="510" y="50" as="targetPoint" />
          </mxGeometry>
        </mxCell>
        <mxCell id="SYYZpPilES1rbt3dCbsm-19" value="Date of Issue" style="ellipse;whiteSpace=wrap;html=1;align=center;labelBackgroundColor=none;rounded=0;" parent="1" vertex="1">
          <mxGeometry x="871" y="-537.5" width="100" height="40" as="geometry" />
        </mxCell>
        <mxCell id="SYYZpPilES1rbt3dCbsm-20" value="" style="endArrow=none;html=1;rounded=0;entryX=0.012;entryY=0.339;entryDx=0;entryDy=0;entryPerimeter=0;exitX=1;exitY=0.413;exitDx=0;exitDy=0;exitPerimeter=0;" parent="1" source="OQcG7aROBmUX-weqK0BG-73" target="SYYZpPilES1rbt3dCbsm-19" edge="1">
          <mxGeometry width="50" height="50" relative="1" as="geometry">
            <mxPoint x="690" y="-510" as="sourcePoint" />
            <mxPoint x="740" y="-560" as="targetPoint" />
          </mxGeometry>
        </mxCell>
        <mxCell id="SYYZpPilES1rbt3dCbsm-23" value="" style="endArrow=none;html=1;rounded=0;exitX=0.472;exitY=-0.004;exitDx=0;exitDy=0;exitPerimeter=0;entryX=0.003;entryY=0.587;entryDx=0;entryDy=0;entryPerimeter=0;" parent="1" target="OQcG7aROBmUX-weqK0BG-52" edge="1">
          <mxGeometry width="50" height="50" relative="1" as="geometry">
            <mxPoint x="62.20000000000027" y="-480.15999999999985" as="sourcePoint" />
            <mxPoint x="130" y="-530" as="targetPoint" />
          </mxGeometry>
        </mxCell>
        <mxCell id="SYYZpPilES1rbt3dCbsm-25" value="" style="endArrow=none;html=1;rounded=0;" parent="1" edge="1">
          <mxGeometry width="50" height="50" relative="1" as="geometry">
            <mxPoint x="340" y="-40" as="sourcePoint" />
            <mxPoint x="340" y="-170" as="targetPoint" />
          </mxGeometry>
        </mxCell>
        <mxCell id="SYYZpPilES1rbt3dCbsm-26" value="Works on" style="shape=rhombus;perimeter=rhombusPerimeter;whiteSpace=wrap;html=1;align=center;fillStyle=auto;labelBackgroundColor=none;" parent="1" vertex="1">
          <mxGeometry x="-176.5" y="-140" width="95" height="60" as="geometry" />
        </mxCell>
        <mxCell id="SYYZpPilES1rbt3dCbsm-27" value="" style="endArrow=none;html=1;rounded=0;exitX=0.5;exitY=0;exitDx=0;exitDy=0;" parent="1" source="SYYZpPilES1rbt3dCbsm-26" edge="1">
          <mxGeometry width="50" height="50" relative="1" as="geometry">
            <mxPoint x="-110" y="-140" as="sourcePoint" />
            <mxPoint x="-130" y="-160" as="targetPoint" />
          </mxGeometry>
        </mxCell>
        <mxCell id="SYYZpPilES1rbt3dCbsm-30" value="" style="endArrow=none;html=1;rounded=0;exitX=0.5;exitY=0;exitDx=0;exitDy=0;entryX=0.5;entryY=1;entryDx=0;entryDy=0;shape=link;" parent="1" source="OQcG7aROBmUX-weqK0BG-116" target="OQcG7aROBmUX-weqK0BG-113" edge="1">
          <mxGeometry width="50" height="50" relative="1" as="geometry">
            <mxPoint x="140" y="-60" as="sourcePoint" />
            <mxPoint x="190" y="-110" as="targetPoint" />
          </mxGeometry>
        </mxCell>
        <mxCell id="SYYZpPilES1rbt3dCbsm-32" value="&lt;font style=&quot;font-size: 18px;&quot;&gt;(1,1)&lt;/font&gt;" style="text;html=1;align=center;verticalAlign=middle;whiteSpace=wrap;rounded=0;" parent="1" vertex="1">
          <mxGeometry x="537.5" y="-710" width="65" height="30" as="geometry" />
        </mxCell>
        <mxCell id="SYYZpPilES1rbt3dCbsm-33" value="&lt;font style=&quot;font-size: 16px;&quot;&gt;(0,1)&lt;/font&gt;" style="text;html=1;align=center;verticalAlign=middle;resizable=0;points=[];autosize=1;strokeColor=none;fillColor=none;" parent="1" vertex="1">
          <mxGeometry x="570" y="-550" width="60" height="30" as="geometry" />
        </mxCell>
        <mxCell id="SYYZpPilES1rbt3dCbsm-34" value="&lt;font style=&quot;font-size: 16px;&quot;&gt;(1,N)&lt;/font&gt;" style="text;html=1;align=center;verticalAlign=middle;resizable=0;points=[];autosize=1;strokeColor=none;fillColor=none;" parent="1" vertex="1">
          <mxGeometry x="101" y="-314" width="60" height="30" as="geometry" />
        </mxCell>
        <mxCell id="SYYZpPilES1rbt3dCbsm-35" value="" style="endArrow=none;html=1;rounded=0;" parent="1" edge="1">
          <mxGeometry width="50" height="50" relative="1" as="geometry">
            <mxPoint x="340" y="-170" as="sourcePoint" />
            <mxPoint x="-70" y="-170" as="targetPoint" />
          </mxGeometry>
        </mxCell>
        <mxCell id="SYYZpPilES1rbt3dCbsm-36" value="&lt;font style=&quot;font-size: 16px;&quot;&gt;(0,N)&lt;/font&gt;" style="text;html=1;align=center;verticalAlign=middle;resizable=0;points=[];autosize=1;strokeColor=none;fillColor=none;" parent="1" vertex="1">
          <mxGeometry x="78.5" y="-205" width="60" height="30" as="geometry" />
        </mxCell>
        <mxCell id="SYYZpPilES1rbt3dCbsm-37" value="&lt;font style=&quot;font-size: 16px;&quot;&gt;(0,N)&lt;/font&gt;" style="text;html=1;align=center;verticalAlign=middle;resizable=0;points=[];autosize=1;strokeColor=none;fillColor=none;" parent="1" vertex="1">
          <mxGeometry x="76" y="260" width="60" height="30" as="geometry" />
        </mxCell>
        <mxCell id="SYYZpPilES1rbt3dCbsm-38" value="&lt;font style=&quot;font-size: 18px;&quot;&gt;(0,1)&lt;/font&gt;" style="text;html=1;align=center;verticalAlign=middle;whiteSpace=wrap;rounded=0;" parent="1" vertex="1">
          <mxGeometry x="76" y="130" width="65" height="30" as="geometry" />
        </mxCell>
        <mxCell id="SYYZpPilES1rbt3dCbsm-39" value="&lt;font style=&quot;font-size: 16px;&quot;&gt;(0,N)&lt;/font&gt;" style="text;html=1;align=center;verticalAlign=middle;resizable=0;points=[];autosize=1;strokeColor=none;fillColor=none;" parent="1" vertex="1">
          <mxGeometry x="-130" y="-220" width="60" height="30" as="geometry" />
        </mxCell>
        <mxCell id="SA-sYwpoOOXCyTTeMq8Y-1" value="" style="endArrow=none;html=1;rounded=0;exitX=1;exitY=0.5;exitDx=0;exitDy=0;shape=link;" parent="1" source="OQcG7aROBmUX-weqK0BG-167" edge="1">
          <mxGeometry width="50" height="50" relative="1" as="geometry">
            <mxPoint x="887" y="-676.25" as="sourcePoint" />
            <mxPoint x="1120" y="-671" as="targetPoint" />
          </mxGeometry>
        </mxCell>
        <mxCell id="SA-sYwpoOOXCyTTeMq8Y-2" value="" style="endArrow=none;html=1;rounded=0;shape=link;exitX=0.5;exitY=0;exitDx=0;exitDy=0;" parent="1" source="SA-sYwpoOOXCyTTeMq8Y-6" edge="1">
          <mxGeometry width="50" height="50" relative="1" as="geometry">
            <mxPoint x="1110" y="-40" as="sourcePoint" />
            <mxPoint x="1120" y="-670" as="targetPoint" />
          </mxGeometry>
        </mxCell>
        <mxCell id="SA-sYwpoOOXCyTTeMq8Y-3" value="" style="endArrow=none;html=1;rounded=0;" parent="1" edge="1">
          <mxGeometry width="50" height="50" relative="1" as="geometry">
            <mxPoint x="180" y="500" as="sourcePoint" />
            <mxPoint x="1120" y="500" as="targetPoint" />
          </mxGeometry>
        </mxCell>
        <mxCell id="SA-sYwpoOOXCyTTeMq8Y-4" value="" style="endArrow=none;html=1;rounded=0;" parent="1" edge="1">
          <mxGeometry width="50" height="50" relative="1" as="geometry">
            <mxPoint x="180" y="500" as="sourcePoint" />
            <mxPoint x="180" y="220" as="targetPoint" />
          </mxGeometry>
        </mxCell>
        <mxCell id="SA-sYwpoOOXCyTTeMq8Y-5" value="" style="endArrow=none;html=1;rounded=0;exitX=1;exitY=0.5;exitDx=0;exitDy=0;" parent="1" source="OQcG7aROBmUX-weqK0BG-116" edge="1">
          <mxGeometry width="50" height="50" relative="1" as="geometry">
            <mxPoint x="320" y="150" as="sourcePoint" />
            <mxPoint x="180" y="220" as="targetPoint" />
          </mxGeometry>
        </mxCell>
        <mxCell id="SA-sYwpoOOXCyTTeMq8Y-6" value="Contains" style="shape=rhombus;perimeter=rhombusPerimeter;whiteSpace=wrap;html=1;align=center;fillStyle=auto;labelBackgroundColor=none;" parent="1" vertex="1">
          <mxGeometry x="1070" y="-284" width="100" height="60" as="geometry" />
        </mxCell>
        <mxCell id="yU8fhmTcy-VDWWhCs9XN-1" value="" style="endArrow=none;html=1;rounded=0;entryX=0.5;entryY=1;entryDx=0;entryDy=0;" parent="1" target="SA-sYwpoOOXCyTTeMq8Y-6" edge="1">
          <mxGeometry width="50" height="50" relative="1" as="geometry">
            <mxPoint x="1120" y="500" as="sourcePoint" />
            <mxPoint x="1150" y="-175" as="targetPoint" />
          </mxGeometry>
        </mxCell>
        <mxCell id="yU8fhmTcy-VDWWhCs9XN-4" value="&lt;font style=&quot;font-size: 16px;&quot;&gt;(1,N)&lt;/font&gt;" style="text;html=1;align=center;verticalAlign=middle;resizable=0;points=[];autosize=1;strokeColor=none;fillColor=none;" parent="1" vertex="1">
          <mxGeometry x="912" y="-710" width="60" height="30" as="geometry" />
        </mxCell>
        <mxCell id="yU8fhmTcy-VDWWhCs9XN-5" value="&lt;font style=&quot;font-size: 18px;&quot;&gt;(0,N)&lt;/font&gt;" style="text;html=1;align=center;verticalAlign=middle;whiteSpace=wrap;rounded=0;" parent="1" vertex="1">
          <mxGeometry x="656.5" y="535" width="65" height="30" as="geometry" />
        </mxCell>
        <mxCell id="9ivsjlzOyfVbsFFKU-c3-1" value="Email" style="ellipse;whiteSpace=wrap;html=1;align=center;labelBackgroundColor=none;rounded=0;" vertex="1" parent="1">
          <mxGeometry x="-195" y="-1030" width="100" height="40" as="geometry" />
        </mxCell>
        <mxCell id="9ivsjlzOyfVbsFFKU-c3-2" value="Password" style="ellipse;whiteSpace=wrap;html=1;align=center;labelBackgroundColor=none;rounded=0;" vertex="1" parent="1">
          <mxGeometry x="-270" y="-620" width="126" height="40" as="geometry" />
        </mxCell>
        <mxCell id="9ivsjlzOyfVbsFFKU-c3-3" value="" style="endArrow=none;html=1;rounded=0;entryX=0.74;entryY=0.975;entryDx=0;entryDy=0;entryPerimeter=0;exitX=0.25;exitY=0;exitDx=0;exitDy=0;" edge="1" parent="1" source="9179TzxeBBv2wxfT4U8i-2" target="9ivsjlzOyfVbsFFKU-c3-1">
          <mxGeometry width="50" height="50" relative="1" as="geometry">
            <mxPoint x="-40" y="-760" as="sourcePoint" />
            <mxPoint x="10" y="-810" as="targetPoint" />
          </mxGeometry>
        </mxCell>
        <mxCell id="9ivsjlzOyfVbsFFKU-c3-4" value="" style="endArrow=none;html=1;rounded=0;exitX=0;exitY=0.5;exitDx=0;exitDy=0;" edge="1" parent="1" source="9179TzxeBBv2wxfT4U8i-2" target="9ivsjlzOyfVbsFFKU-c3-2">
          <mxGeometry width="50" height="50" relative="1" as="geometry">
            <mxPoint x="-85" y="-834" as="sourcePoint" />
            <mxPoint x="-111" y="-981" as="targetPoint" />
          </mxGeometry>
        </mxCell>
        <mxCell id="9ivsjlzOyfVbsFFKU-c3-5" value="User ID" style="ellipse;whiteSpace=wrap;html=1;align=center;fontStyle=4;labelBackgroundColor=none;rounded=0;" vertex="1" parent="1">
          <mxGeometry x="41" y="-804" width="100" height="40" as="geometry" />
        </mxCell>
        <mxCell id="9ivsjlzOyfVbsFFKU-c3-6" value="User ID" style="ellipse;whiteSpace=wrap;html=1;align=center;fontStyle=4;labelBackgroundColor=none;rounded=0;" vertex="1" parent="1">
          <mxGeometry x="1" y="-480" width="100" height="40" as="geometry" />
        </mxCell>
      </root>
    </mxGraphModel>
  </diagram>
</mxfile>
